<svg viewBox="0 0 85.615 34.487" xmlns="http://www.w3.org/2000/svg"><defs><filter style="color-interpolation-filters:sRGB" id="a" x="0" y="0" width="1" height="1"><feTurbulence type="fractalNoise" numOctaves="5" seed="1" baseFrequency="0.018 0.008" result="turbulence"/><feDisplacementMap in="SourceGraphic" in2="turbulence" scale="6.6" yChannelSelector="G" xChannelSelector="R"/></filter></defs><g style="filter:url(#a)" transform="matrix(.94458 0 0 1.13576 -48.406 -94.341)"><path style="color:#fff;-inkscape-font-specification:PlainBlackWide;display:inline;fill:#fff;stroke-linecap:square;stroke-linejoin:bevel;-inkscape-stroke:none" d="M96.555 83.065c-.512 0-.998.023-1.461.07-.46.047-.915.102-1.366.168h-.005c-.446.057-.9.115-1.364.172h-.006c-.465.048-.947.072-1.449.072-.355 0-.598-.007-.766-.031l-.019-.004a1.083 1.083 0 0 1-.361-.133c.058.38.185.736.623 1.065v.001c.501.361 1.321.569 2.469.569.185 0 .391-.014.618-.041.24-.037.462-.07.667-.098.209-.036.377-.067.513-.094l.213-.056.076-.01c.159 0 .29.114.348.21l-.045-.054c.023.024.045.043.067.07l.013.02.193-.228c.11-.019.21-.031.305-.041a1.97 1.97 0 0 1 .383-.034c.511 0 .9.061 1.19.268.282.202.42.548.42.93v1.293l-.137.246c-.07.043-.13.044-.198.08l-.01.086.163-.127-.053.412.232-.18c.03.225.045.41.045.563 0 .14-.005.27-.015.392 0 .115-.004.232-.014.353a6.306 6.306 0 0 0-.013.462l-.192.203.192.252v2.185c0 .379-.058.7-.205.961-.083.157-.233.243-.366.348.179-.065.364-.13.514-.186.244-.098.48-.176.709-.236l.006-.002h.001c.238-.069.483-.123.739-.162h.002c.194-.029.417-.035.64-.041l.208-7.334a3.187 3.187 0 0 1-.098-.51c-.03-.223-.137-.477-.344-.762l-.004-.005c-.178-.257-.495-.51-.969-.743-.435-.213-1.139-.34-2.09-.34Zm-30.8 2.45c-.562 0-1.092.098-1.598.294-.511.197-.96.463-1.35.8-.38.327-.681.709-.91 1.149-.05.098-.036.21-.074.31.117-.23.23-.464.423-.65.28-.27.64-.478 1.067-.631.45-.168.984-.246 1.605-.246a5.17 5.17 0 0 1 1.551.256 3.555 3.555 0 0 1 1.484.925l-.185.49c-.145.012-.29.008-.435-.015l-.004-.002-.405-.072c-.144-.027-.32-.054-.525-.082a5.69 5.69 0 0 0-.74-.04c-.516 0-.939.065-1.266.182-.346.124-.615.27-.809.432a1.606 1.606 0 0 0-.42.502l-.002.002c-.08.18-.113.321-.113.396 0 .056.022.138.088.248.053.09.14.177.236.264-.017-.08-.078-.142-.078-.229 0-.34.213-.642.524-.828.296-.185.628-.284.972-.284.27 0 .565.048.885.138.333.09.643.218.93.381l.004.002c.295.164.547.363.75.596.227.24.363.534.363.847 0 .093-.014.144-.033.262v.004c-.004.02-.019.06-.024.082l.02-.04.004-.007c.138-.248.263-.496.373-.744l.001-.004c.118-.252.177-.443.188-.527l.541-.104c.067.12.132.283.219.525.086.238.175.496.27.77.096.27.182.533.26.793v.002c.075.248.13.436.162.573l-.284.353h-.623c-.231 0-.455-.004-.668-.014-.21-.01-.393-.03-.555-.062h-.003a.753.753 0 0 1-.233-.082c-.045-.026-.072-.115-.113-.182-.032.078-.042.12-.078.205l-.002.002a28.99 28.99 0 0 1-.672 1.475h-.002c-.16.328-.275.571-.35.73l-.003.006a1.31 1.31 0 0 1-.247.393.608.608 0 0 1-.441.199h-.412c-.165 0-.417.022-.74.068l-.006.002a8.689 8.689 0 0 0-1.248.274l-.006.002c-.192.05-.438.143-.729.28l-.002.001a4.3 4.3 0 0 0-.808.518c-.263.21-.5.46-.713.754-.19.275-.316.584-.375.941l-.002.004c-.033.187-.022.3-.012.404a3.32 3.32 0 0 1 .502-.66l.004-.004c.267-.256.582-.484.942-.684.364-.202.77-.361 1.216-.48.462-.13.95-.195 1.465-.195.425 0 .828.06 1.201.185.35.108.666.231.946.371.278.125.513.247.706.37l-.015-.01c.175.096.316.12.26.12.108 0 .131-.016.176-.078l.007-.01c.088-.111.206-.296.344-.544l.004-.006c.156-.265.363-.582.621-.955l.002-.002c.016-.024.053-.054.07-.078-.025.003-.05.023-.074.023-.106 0-.122-.02-.158-.035a2.956 2.956 0 0 0-.455-.178l-.018-.006a6.057 6.057 0 0 0-.675-.201l-.01-.004a9.7 9.7 0 0 0-1.102-.234l-.228-.377c.031-.094.071-.2.12-.319l.004-.01c.056-.12.107-.235.153-.345a3.229 3.229 0 0 1 .268-.517l.24-.13h3.025l.289.292v.496l-.07.19c-.038.043-.053.063-.088.104l.318.018c.11.132.192.263.237.408.034.103.058.207.07.313a2.9 2.9 0 0 0 .04.246.827.827 0 0 0 .114.24l.016.028c-.01-.02.02.03.07.093.048.06.12.147.207.248l.01.01c.195.205.398.421.611.652l.008.009.436.435.04.355c-.058.096-.109.179-.144.256l-.002.004c-.106.248-.16.503-.16.775 0 .498.108.886.309 1.19.015.022.033.033.048.055-.029-.108-.097-.214-.097-.323 0-.507.279-.947.74-1.212.453-.27 1.008-.397 1.65-.397.377 0 .711.034 1.006.107h.002c.28.068.545.14.797.217.242.075.489.146.74.211l-.001-.001c.165.04.376.05.582.064a1.945 1.945 0 0 1-.406-.117l-.024-.012a1.825 1.825 0 0 1-.37-.287l-.01-.01a6.416 6.416 0 0 1-.345-.416l.147-.348c-.06.008-.094.063-.156.063-.196 0-.327-.086-.48-.195l-.01-.006a4.754 4.754 0 0 0-.442-.293l-.013-.01a2.827 2.827 0 0 0-.58-.295 2.02 2.02 0 0 0-.733-.123c-.167 0-.328.016-.485.045l-.267-.479.013-.015c.118-.132.2-.236.3-.352-.057.018-.102.067-.169.067-.31 0-.573-.202-.764-.483l-.007-.012a6.152 6.152 0 0 1-.432-.847l-.004-.012a14.957 14.957 0 0 1-.29-.84l-.003-.011-.076-.305c-.009-.038-.016-.068-.021-.096-.002-.006-.001-.018-.003-.023-.09-.283-.166-.5-.218-.641l-.002-.006a25.396 25.396 0 0 0-.168-.463l-.006-.015c-.048-.155-.1-.333-.158-.533v-.003l-.242-.88v-.002a45.946 45.946 0 0 0-.762-2.569l-.002-.002c-.21-.646-.437-1.313-.664-1.982l-.006.012c-.037.112-.093.22-.162.324l-.01.013c-.088.118-.204.21-.342.29l-.344-.04c-.279-.262-.699-.53-1.257-.786l-.004-.003c-.519-.25-1.171-.382-1.963-.382zm47.401.079c-.313 0-.599.042-.86.127l-.006.002a2.353 2.353 0 0 0-.666.312l-.002.002a1.57 1.57 0 0 0-.416.438c-.032.057-.029.122-.049.181.072-.122.14-.247.225-.34v-.001a1.34 1.34 0 0 1 .525-.37c.045-.017.078-.037.172-.037.421 0 .799.218.993.58h.002c.166.295.321.62.466.977v.002c.134.32.293.611.477.875.15.205.363.307.746.307.197 0 .387-.046.586-.15.204-.114.382-.263.54-.454l.005-.006c.026-.029.035-.073.059-.103-.085.018-.133.1-.223.1a.64.64 0 0 1-.516-.29l-.01-.017a1.892 1.892 0 0 1-.168-.452l-.004-.017a14.58 14.58 0 0 0-.097-.473l-.004-.017a1.702 1.702 0 0 0-.108-.4v-.003c-.068-.16-.24-.339-.564-.51l-.008-.003c-.302-.171-.66-.26-1.093-.26zm-19.238.181c-.615.198-1.162.39-1.485.563l-.001.002c-.384.21-.657.398-.803.537-.147.15-.213.27-.217.285-.034.138-.049.257-.207.375l-.045.027c-.166.083-.31.06-.463.024a2.178 2.178 0 0 0-.518.006c-.405.045-.796.13-1.173.256l-.004.002a3.833 3.833 0 0 0-.976.46l-.003.003c-.273.18-.484.388-.64.627a1.29 1.29 0 0 0-.223.734c0 .046.023.066.025.11.035-.107.035-.225.102-.317a1.63 1.63 0 0 1 .496-.465c.195-.12.412-.21.645-.273l.002-.002c.242-.063.49-.094.742-.094.107 0 .225.017.375.045.168.02.336.058.502.11h.003c.167.04.325.09.475.15.166.066.305.14.412.265l-.22.477c-.063 0-.107-.006-.195-.016-.089-.01-.206-.024-.354-.043l-.01-.002a4.404 4.404 0 0 0-.853-.053c-.29.009-.544.065-.772.163-.161.072-.21.142-.21.386a.94.94 0 0 0 .091.44c.018.03.115.086.162.129.045-.086.038-.207.133-.27.218-.145.423-.135.744-.135.348 0 .689.07 1.014.205.367.142.625.474.625.852 0 .163-.05.314-.127.478-.053.125-.1.247-.145.372-.008.024-.006.034-.013.056.116-.017.207-.024.402-.078h.002c.304-.08.616-.192.934-.338l.001-.002c.325-.144.622-.31.89-.496.264-.188.421-.372.497-.535.066-.148.104-.286.12-.414.017-.146.021-.274.013-.385v-.002a2.603 2.603 0 0 0-.037-.318c-.02-.1-.035-.147-.035-.24v-1.577c0-.492.023-.898.074-1.224l.002-.008a4.37 4.37 0 0 1 .2-.762l.003-.008c.015-.035.029-.05.043-.081zm26.994.309c-.026.008-.057.01-.156.06l-.014.006c-.141.062-.293.14-.457.231l-.006.002c-.163.086-.32.167-.474.244l-.006.004c-.158.073-.274.127-.436.127-.056 0-.085-.036-.129-.057l-.2-.199c-.07.19-.119.385-.267.527l.114-.113.129.418.008-.143.453-.222.369.256c.138.095.261.209.37.336.13.132.229.29.298.47.087.191.125.409.125.653 0 .062-.005.083-.012.154l-.031.28-.002.01c-.02.258-.065.548-.131.872-.06.332-.154.665-.283 1.002l-.002.004a2.265 2.265 0 0 1-.213.405c.548-.261.996-.497 1.322-.7.334-.21.584-.44.756-.687.172-.246.29-.539.35-.891v-.006c.069-.363.105-.854.107-1.45a1.291 1.291 0 0 0-.464-.847l-.002-.002c-.27-.236-.658-.488-1.116-.744zm-45.687.449c-.363 0-.693.065-.996.192a2.526 2.526 0 0 0-.788.506l-.001.001-.003.003c-.007.008-.01.019-.017.027.112-.06.216-.143.342-.143.2 0 .42.105.529.283h.002c.078.12.131.258.174.416l-.004-.017c.047.14.097.3.152.475.055.148.14.297.256.447l.002.003c.107.143.315.321.627.508.276.166.638.256 1.102.256.334 0 .62-.058.872-.172h.003c.273-.128.497-.283.677-.463.02-.02.025-.045.043-.066-.1.03-.194.074-.302.074-.318 0-.6-.21-.764-.504l-.008-.012c-.12-.239-.263-.503-.431-.792l-.003-.006a2.7 2.7 0 0 0-.578-.719l-.008-.008c-.192-.185-.466-.289-.878-.289Zm8.425.022-1.795 1.007-.341-.105c-.019.071-.018.147-.05.214l-.003.01a1.185 1.185 0 0 1-.35.395l-.002.002c-.13.1-.279.205-.445.312l-.01.006-.482.285-.012.006a4.529 4.529 0 0 0-.387.227l-.004.002c-.39.25-.707.481-.949.687l-.004.004a3.15 3.15 0 0 0-.558.569l-.002.001c-.123.173-.205.35-.252.53-.05.189-.076.41-.076.664l-.29.289c-.473 0-.943.046-1.408.137l-.003.002c-.447.08-.841.216-1.19.408l-.002.002c-.332.179-.592.41-.793.703-.19.277-.29.621-.29 1.059 0 .258.065.347.115.48 0-.03-.016-.056-.012-.088l.002-.008c.046-.321.19-.617.414-.863l.004-.006c.236-.247.551-.438.931-.582.394-.148.854-.217 1.381-.217h.24c.054 0 .105.007.156.014l.006.002c.103.001.2.025.291.064h.003c.088.028.175.067.285.122l.16.257v.17l-.186.272c-.3.116-.595.217-.886.305l-.006.001c-.257.071-.49.159-.698.262l-.004.002a1.203 1.203 0 0 0-.421.354c-.087.117-.141.292-.141.553 0 .012.014.134.047.296.012.046.086.097.125.145.009-.125.017-.251.076-.361a.947.947 0 0 1 .436-.407c.224-.123.493-.162.827-.162.207 0 .359.01.516.082a.485.485 0 0 1 .264.262c.042.107.051.211.051.328 0 .094-.005.24-.014.441 0 .24-.038.485-.111.735v.002c-.078.256-.21.49-.389.691-.052.058-.151.042-.215.086.286-.048.576-.09.85-.162.428-.11.801-.24 1.12-.39.318-.159.57-.334.76-.524v-.002c.177-.185.254-.362.26-.574v-.004c.029-.591.037-1.129.028-1.614v-.005c0-.5-.004-.986-.014-1.457-.01-.485-.013-.975-.013-1.47 0-.508.018-1.068.056-1.679v-.002c.016-.22.12-.415.27-.619.146-.209.316-.39.51-.54l.433.216.023-.512.364-.267c.189.05.372.15.562.287.177.128.342.267.492.416.163.142.3.293.409.455.113.144.2.246.226.43v.01c.037.33.06.553.07.697l.002.023c.018.115.03.209.03.291a.676.676 0 0 1-.049.25c.007-.017-.027.101-.055.266v.004a.744.744 0 0 1-.236.422c-.04.034-.092.051-.137.08l.307.185v.596c.009.148.013.282.013.398v.283c0 .096-.005.2-.015.311l-.2.184c.09.071.193.13.241.234.071.145.1.309.088.473v1.484c0 .331-.019.72-.057 1.168-.011.169-.088.337-.174.506l.258.012c.17.128.331.283.485.466l.003.004c.139.157.277.32.415.485l.011.013c.142.151.283.294.416.428.07.066.13.086.193.127l1.436-1.799-.287.006c-.236-.164-.414-.323-.533-.508l-.012-.02c-.113-.211-.163-.477-.203-.843l-.002-.031c0-.56.004-1.069.013-1.526.01-.452.016-.896.016-1.33v-.006l.028-1.334v-.006c.019-.453.038-.959.057-1.517.01-.304.05-.583.124-.838l.004-.011c.06-.18.13-.35.201-.52l-.348-.055a6.086 6.086 0 0 0-.528-.5l-.006-.006a4.7 4.7 0 0 0-.415-.322l-.017-.012a96.9 96.9 0 0 0-.483-.383l-.005-.003a25.767 25.767 0 0 1-.534-.467Zm35.395.01a.237.237 0 0 0 .107.1c-.013-.01-.04-.01-.05-.02zm-45.818.771-.012.01c.002-.002.006 0 .007-.002.003-.002.003-.006.005-.008zm22.156.027v.303l.174-.147zm22.912.073c-.217.14-.42.282-.673.412-.376.192-.75.414-1.117.662-.32.222-.553.521-.706.928-.116.32-.387.56-.734.695-.309.12-.653.223-1.033.31-.364.084-.736.181-1.12.293-.34.103-.619.26-.85.475h-.001l-.315.287-.014.01c-.03.025-.039.04-.04.04a1.679 1.679 0 0 1-.16.622c-.085.184-.116.329-.116.42 0 .052.049.138.067.203.05-.21.105-.425.275-.576.209-.187.465-.34.763-.463.302-.13.624-.231.962-.3.335-.07.649-.11.943-.12.29-.01.536.004.75.049a.775.775 0 0 1 .328.133.487.487 0 0 1 .186.363c0 .123-.07.26-.16.332a.624.624 0 0 1-.282.12c-.156.034-.34.056-.558.066-.195.009-.41.022-.643.04a2.242 2.242 0 0 0-.592.126l-.008.001a.913.913 0 0 0-.39.25c-.071.077-.121.198-.121.415 0 .11.031.205.103.312.008.01.064.011.078.022l-.002-.149c.17-.181.393-.31.647-.389.248-.085.507-.128.773-.128.225 0 .403.015.565.074h.002a.66.66 0 0 1 .383.308c.066.12.091.253.091.39v.942a.753.753 0 0 1-.1.46l-.01.015a1.46 1.46 0 0 1-.314.303l-.004.002c-.083.062-.264.23-.506.48l-.369.041c.043.029.044.007-.03.024a1.616 1.616 0 0 0-.355.146l-.004.002a6.72 6.72 0 0 0-1.006.655l-.004.001c-.355.265-.673.55-.953.858l-.002.004c-.274.29-.392.526-.406.634-.013.101.007.118.004.2.15-.204.306-.392.469-.555l.006-.008c.18-.17.382-.311.603-.427l.006-.004a2.89 2.89 0 0 1 .801-.25c.3-.062.647-.092 1.047-.092.6 0 1.165.07 1.693.209.453.111 1.007.31 1.602.541l.11-.176c.155-.242.337-.512.548-.808l.004-.005c.052-.07.11-.135.164-.204a3.427 3.427 0 0 0-.861-.395h-.002a4.596 4.596 0 0 0-.789-.16l-.002-.002c-.25-.028-.487-.046-.717-.055h-.002a3.158 3.158 0 0 1-.671-.094l-.002-.56c.798-.22 1.327-.493 1.586-.76.274-.292.429-.645.472-1.097v-.003c.02-.27.044-.48.077-.644.034-.169.086-.317.181-.444l.014-.017c.037-.042.093-.058.137-.092l-.28-.2v-1.63l.028-.766c.009-.268.024-.559.043-.873v-.002c.03-.462.094-.822.223-1.105l.002-.002v-.002c.054-.122.2-.21.289-.318zm11.494.695c-.317 0-.66.04-1.03.121a4.3 4.3 0 0 0-1.024.371l-.006.004c-.137.067-.247.178-.373.262.243-.065.514-.102.844-.102.75 0 1.33.11 1.75.39.378.236.668.52.848.856.171.295.287.587.341.88l-.002-.01c.007.033.011.017.02.044l.03-.039c.078-.106.161-.211.247-.316.092-.123.197-.248.316-.377v-.002c.127-.136.286-.3.477-.49a4.6 4.6 0 0 1 .724-.604c.227-.151.427-.274.604-.373-.197.013-.421.074-.596.049h-.002a6.876 6.876 0 0 1-.994-.223l-.01-.003c-.297-.102-.617-.2-.961-.293l-.01-.003c-.302-.092-.702-.142-1.193-.142zm-13.457.283c0 .001 0 .004-.002.006l.004-.006h-.002zm-43.563.262c0 .018-.011.036-.011.055 0 .17.049.357.162.568l.002.002v.002c.07.125.2.238.312.355-.206-.305-.455-.59-.465-.982zm62.788.244-.012.016-.03.076-.007.062.155-.154zm-.063.371c-.371.232-.73.485-1.063.793l-.002.002c-.394.357-.752.696-1.07 1.014l-.822.822c-.121.12-.228.215-.33.287-.103.072-.195.139-.358.139-.104 0-.197-.006-.283-.018a12.01 12.01 0 0 1-.276-.043h-.006a14.599 14.599 0 0 0-.431-.07l-.014-.002a26.174 26.174 0 0 0-.785-.14c-.297-.048-.649-.11-1.057-.186-.419-.078-.82-.181-1.203-.309a3.617 3.617 0 0 1-1.017-.51 1.18 1.18 0 0 1-.49-.923 1.505 1.505 0 0 0-.1.445c0 .18.014.343.039.492v.004c.027.15.053.278.078.38l.002.008c.016.048.031.091.041.126.012.04.026.038.026.144l-.016.092c-.031.093-.103.168-.16.25l.183.088c.217.27.435.503.655.697.212.178.467.335.766.467l.004.002c.305.121.676.223 1.11.304.436.073.99.125 1.653.153l.273.238c.013.071 0 .14-.002.21l.006-.024a.435.435 0 0 1 .252-.266.729.729 0 0 1 .281-.043c.319 0 .658.04 1.016.12.367.07.708.176 1.022.318.325.133.607.305.833.521.243.231.39.532.39.85 0 .18-.05.36-.141.515-.054.094-.109.164-.163.235.111-.119.27-.257.356-.364.225-.278.38-.524.469-.726.092-.218.133-.412.133-.584l.002-.004c.009-.76.022-1.474.04-2.148v-.004c.03-.672.054-1.263.073-1.774v-.006c.028-.521.052-.936.07-1.25.012-.192.012-.23.016-.322zm-40.111.41v.381a.663.663 0 0 1 .219-.293zm12.785.268c-.907.42-1.48.66-2.195.977l.275.234c.034.204.082.346.123.425.062.091.122.166.176.221.07.06.132.115.184.158.122.102.19.272.19.422v.117l.25-.193c.176.018.431.032.76.041.305.009.605-.038.905-.14.28-.097.523-.26.739-.508v-.002c-.171.08-.318.193-.545.193a.899.899 0 0 1-.52-.152l-.027-.02a1.398 1.398 0 0 1-.27-.324l-.006-.01a1.853 1.853 0 0 1-.15-.353l-.003-.008a1.085 1.085 0 0 1-.053-.303 1.3 1.3 0 0 1 .153-.654l.008-.014c.01-.017.006-.08.015-.107zm-2.424 1.078c-.52.228-1.231.561-1.645.732h-.002c-.501.203-.89.351-1.187.457l.1.309.152-.25c.086.21.128.468.149.793l.002.01.113 1.183c.03.301.043.574.043.822a18.34 18.34 0 0 1 0 1.393v.012c0 .224.005.477.014.756v.02c.027.29.038.53.027.72-.01.19-.05.37-.125.531l-.004.008a2.09 2.09 0 0 1-.28.412l-.008.01c-.076.083-.19.215-.306.35.136-.057.257-.133.431-.153.243-.036.505-.085.785-.149l.004-.001h.002c.274-.07.534-.176.784-.322l.004-.005c.227-.128.407-.324.547-.619.18-.397.25-.694.244-.834v-.011c0-.229-.011-.419-.028-.565a1.07 1.07 0 0 1 .117-.623h.002c.13-.242.36-.423.715-.67l-.125.238h.512l.389-.273c.32.118.582.29.757.527.146.198.26.403.336.62.075.186.139.365.196.535 0 0 .002 0 .002.002.006.014.018.016.025.03l1.756-2.13c-.078.06-.164.113-.274.168l-.314-.037a3.038 3.038 0 0 0-.621-.402c-.19-.091-.428-.141-.727-.141-.15 0-.343.023-.574.076a2.35 2.35 0 0 1-.68.078l-.138-.148c-.005.198-.104.329-.225.46-.137.164-.336.311-.629.497l-.445-.244c0-.784-.01-1.392-.027-1.82v-.008c-.01-.444-.02-.782-.03-1.016a3.725 3.725 0 0 0-.037-.451l-.004-.03a3.224 3.224 0 0 1-.016-.312c0-.063.007-.122.018-.187l.008-.034a.697.697 0 0 1 .216-.314zm-24.258.14.002.15.09-.063c-.021-.011-.028-.02-.056-.032zm20.594.196c-.556.509-1.172 1.034-1.545 1.49-.056.07-.1.136-.17.225l-.173-.063.087.176c-.444.575-.81 1.102-1.05 1.537v.002c-.258.46-.412.818-.495 1.102l-.347-.05c-.02.253-.18.45-.284.673l.483.087c.007.821.138 1.523.387 2.106h-.002c.263.607.594 1.116.994 1.534.407.424.85.763 1.334 1.023a8.347 8.347 0 0 0 2.695.92c.384.047.662.068.805.068.833 0 1.594-.123 2.29-.367a6.065 6.065 0 0 0 1.827-1.016 4.628 4.628 0 0 0 1.192-1.457l.002-.002a3.602 3.602 0 0 0 .433-1.724c0-.039-.003-.026-.006-.057-.083.778-.256 1.53-.758 2.142-.597.74-1.492 1.245-2.642 1.52l-.288-.228v.03l-.263.29c-.082.008-.153.02-.213.035l-.031.006a2.209 2.209 0 0 1-.295.015c-.38 0-.75-.054-1.11-.167l-.01-.004a7.613 7.613 0 0 1-.959-.414l-.002-.002a8.342 8.342 0 0 1-.824-.5l-.006-.002c-.236-.17-.438-.319-.609-.442l-.016-.432-.234.016c-.215-.19-.388-.457-.541-.793l-.002-.006a9.058 9.058 0 0 1-.354-.982l-.002-.008a13.223 13.223 0 0 1-.203-.873l-.052-.287a3.124 3.124 0 0 1-.016-.084c-.003-.016-.004-.035-.006-.055v-.008a8.305 8.305 0 0 1-.029-1.183l.021-.39c.005-.09.006-.173.006-.134l.002-.02c.03-.436.104-.819.23-1.148.112-.297.235-.648.366-1.052l.264-.121-.053-.077c.03.065.047.054.072.067l.01-.004-.18-.23v-.157l.044-.15.226-.375zm17.833.099a2.056 2.056 0 0 1-.288.333c.067.031.15.041.2.09.1.091.183.207.267.347.21.336.285.787.285 1.373 0 .357-.005.627-.014.824 0 .209-.033.402-.107.576-.052.134-.152.256-.254.38l.195.042c.102.146.155.32.187.52l.004.014c.033.15.095.327.19.535a2.812 2.812 0 0 0 .463.664l.002.002c.205.22.53.462.974.707l-.011-.006c.086.043.167.099.261.172l.004.002c.033.026.04.023.057.03a1.13 1.13 0 0 0 .111-.132l.006-.008c.118-.148.367-.537.715-1.13.072-.121.142-.282.212-.43-.333-.068-.62-.21-.776-.467l-.006-.01a1.76 1.76 0 0 1-.207-.713v-.011a10.307 10.307 0 0 1 0-.747v-.011a1.832 1.832 0 0 0-.06-.637c-.103-.358-.257-.62-.458-.804l-.004-.004a2.687 2.687 0 0 0-.693-.489l-.004-.002a3.96 3.96 0 0 0-.7-.277l-.011-.004c-.257-.082-.45-.164-.602-.3zm-.764.344-.02.03c.012-.01.028-.008.04-.016l-.02-.014zm-.225.262-.076.033.045.033zm-16.905.248.01.01-.005-.008-.004-.002zm23.782.243-.002.001c-.077.101-.152.225-.22.377a1.308 1.308 0 0 0-.087.522c0 .182.041.38.133.597.09.213.229.43.42.647a3.324 3.324 0 0 0 .715.597c.284.172.617.313 1 .42.055.005.102.01.187.024l.412.07h.004c.173.029.35.069.531.116h.002c.205.04.397.1.577.173l.165.348c.01-.011.017-.026.026-.037.105-.129.204-.262.437-.262.154 0 .354.026.643.074h.002c.302.049.608.116.918.203l.008.002c.312.08.59.18.836.301.136.06.252.125.347.217a.553.553 0 0 1 .178.387c0 .106-.012.09-.019.113-.007.023-.013.047-.023.076v.002a.965.965 0 0 1-.196.313c.35-.281.718-.574.975-.805.21-.19.336-.34.498-.51l-.494-.184c0-.309-.074-.509-.207-.656l-.006-.006a1.587 1.587 0 0 0-.604-.42 4.5 4.5 0 0 0-.906-.265l-.008-.002a33.47 33.47 0 0 1-1.045-.244l-.158-.342v.01l-.284.228h-.283l-.1-.017a3.11 3.11 0 0 0-.47-.1c-.25-.038-.531-.087-.846-.144l-.01-.003c-.304-.066-.623-.136-.955-.212l-.008-.002a6.475 6.475 0 0 1-.965-.328h-.004a2.902 2.902 0 0 1-.755-.475 1.048 1.048 0 0 1-.367-.772c0-.01.007-.02.008-.032zm-30.47.265c-.002.005-.006.01-.007.015v.006zm-3.505.076c-.94 0-1.714.125-2.322.363l-.002.003c-.618.236-1.101.521-1.455.85l-.004.003c-.139.125-.18.251-.285.377.194-.133.376-.28.603-.377.349-.15.706-.262 1.074-.342.362-.078.65-.121.886-.121.687 0 1.288.088 1.802.273.485.165.898.35 1.242.563.33.193.591.379.793.569l.012.01c.158.126.292.161.226.161.01 0 .06-.008.15-.1.125-.124.283-.274.47-.452.205-.205.46-.41.761-.616l.002-.002.004-.001c.247-.175.582-.319.922-.462-.146.022-.282.072-.44.053l-.011-.002a3.276 3.276 0 0 1-.81-.25l-.172-.264v-.132c-.014.038-.021.072-.038.113l-.314.178a57.4 57.4 0 0 0-2.063-.297c-.545-.066-.91-.098-1.03-.098zm-8.713.119c.003.001.004.005.006.006.003.001.007 0 .01.002zm-1.632.078-.003.235c.004-.006.003-.015.006-.02l.002-.002c.029-.044.107-.028.143-.064zm29.01 1.582-.009.006-.006.004c-.004 0 .008.004.002.004-.01 0 .016-.013.014-.012zM87.083 95.92c0 .008-.01.026-.01.033 0 .06.01.132.02.22l-.07.223c-.062.07-.143.14-.214.211l.39.051c-.043-.09-.111-.17-.141-.265l.049-.268.082-.104zm31.938.037-.002.139c.028-.034.053-.07.082-.104l.002-.002zm-37.805.565a3.56 3.56 0 0 1-.409.995l-.001.005c-.17.263-.424.46-.686.648.016-.009.039-.01.055-.02.29-.17.52-.377.705-.627.176-.249.289-.552.332-.93l.002-.003c.003-.024 0-.044.002-.068zm47.864.96c-.002.003-.002.008-.005.01l-.01.008c-.226.147-.506.201-.826.201-.267 0-.627.01-1.08.03h-.006c-.388.008-.948.138-1.65.406a4 4 0 0 0-1.047.598l-.004.001c-.333.253-.623.53-.873.834-.035.043-.05.085-.084.127.07-.062.11-.147.186-.203.323-.24.697-.42 1.113-.543a4.65 4.65 0 0 1 1.373-.195c.081 0 .168.012.315.03l.018.001c.175.01.353.03.536.059l-.002-.002c.202.03.386.072.555.125a.87.87 0 0 1 .248.111.399.399 0 0 1 .181.32.783.783 0 0 1-.01.08l-.006.018c.017-.021.035-.039.051-.06l.299-.106a1.7 1.7 0 0 1 .647.295h.002c.145.105.28.225.404.36l.346.345h.002c.058.059.16.12.248.182.054-.055.075-.072.16-.162.171-.181.37-.389.597-.625v-.002c.238-.248.49-.5.756-.756l.004-.004c.084-.084.166-.143.249-.22-.04.026-.058.046-.1.073l-.324-.001-.639-.442-.008-.004a2.09 2.09 0 0 0-.347-.213l-.016-.008a1.94 1.94 0 0 0-.371-.148l-.68-.197-.209-.28c0-.028.005-.029.008-.043zm-32.317.352-.016.008.012-.004zm-1.43.558c-.169.047-.328.107-.504.143.057-.013.136-.007.192-.021l.003-.002c.124-.03.193-.086.309-.12zm-31.352.061c-.248 0-.53.023-.84.069-.313.046-.621.106-.925.18-.307.074-.589.151-.846.234-.255.082-.44.16-.541.219l-.328-.028-.131-.11c-.007.054.023.11.002.163l-.027.052c-.043.065-.062.071-.086.092a1.725 1.725 0 0 1-.084.069l-.067.046.08-.017c.137 0 .209.121.303.207a.54.54 0 0 1 .178-.308c.102-.077.219-.134.365-.192l.012-.004a7.548 7.548 0 0 1 1.064-.266l.006-.002a21.57 21.57 0 0 1 1.354-.172c.49-.048.95-.072 1.377-.072.663 0 1.33.033 2.001.1.67.067 1.275.17 1.819.305a9.996 9.996 0 0 0-1.309-.385v-.002a7.45 7.45 0 0 0-1.504-.178zm51.305.39c-.042 0-.07.006-.111.007.185.001.429.023.646.035-.177-.014-.435-.041-.535-.041zm-46.586.184c.183.046.296.117.457.17-.06-.025-.093-.057-.156-.082-.094-.037-.204-.054-.3-.088zm42.928.205c.006.015.014.015.014.088 0 .09-.039.12-.069.16l.076.01.014-.101.166-.078c-.032.002-.076.015-.107.015zm-25.574.448c-.245 0-.473.038-.686.111-.013.005-.02.013-.033.017.095.033.204.03.275.108.102.106.176.24.21.383.029.128.04.26.03.394a.725.725 0 0 0 .003.16l.003.014a.774.774 0 0 0 .253.432c.117.096.331.17.677.17.372 0 .655-.064.86-.172l.004-.002c.059-.03.077-.068.128-.1-.108-.014-.22-.018-.312-.097l-.031-.031a.719.719 0 0 1-.155-.309l-.006-.033a2.743 2.743 0 0 1-.011-.27v-.027a.366.366 0 0 0-.004-.115c-.055-.187-.164-.32-.389-.436l-.006-.002a1.658 1.658 0 0 0-.81-.195zm-15.854.072c.24.2.485.409.486.697 0-.017.02-.024.02-.041 0-.172-.108-.374-.438-.619-.018-.013-.049-.024-.068-.037zm21.987.197c-.065.119-.108.228-.194.357l-.004.004a9.74 9.74 0 0 1-.562.739l-.002.004c-.09.11-.183.201-.274.304.142.034.292.076.38.19.096.11.174.238.228.382v.002c.053.135.089.275.107.418v.002c.016.12.025.22.025.31 0 .305-.122.551-.302.747l.222.177c.022.22.042.433.057.633v.002c.016.202.023.378.023.525l-.31.217c.112.086.23.2.23.355v1.041c0 .1-.024.122-.037.147a.53.53 0 0 1-.035.06c-.023.036-.048.07-.082.112l-.01.01c-.022.025-.06.073-.09.107l.266.053c.325.386.62.729.885 1.031l.004.006c.276.299.511.572.707.822l.002.002c.092.11.142.209.217.313-.007-.059-.038-.122-.038-.18v-6.648c0-.294.053-.565.165-.807l.002-.006c.006-.012.014-.02.02-.031l-.241-.041c-.211-.219-.45-.458-.715-.715l-.004-.002-.64-.643zm2.402.334-.036.042c.007-.011-.013-.005-.013.075h.287l.002-.002c0 .008-.008-.008-.023-.046-.008-.046-.027-.069-.057-.069zm19.873.621a.378.378 0 0 1-.129.155c.007.01.008.022.014.033.061-.038.112-.094.183-.11-.025-.024-.046-.05-.068-.078zm-55.617.27c-.168.075-.305.133-.487.217l-.087-.078-.106.164c-.349.159-.6.265-.933.416l.187.158c.026.16.065.266.094.322.047.069.091.126.13.166.056.048.105.092.145.125a.52.52 0 0 1 .174.381l.15-.115c.14.014.346.026.61.033.239.007.475-.029.71-.11.088-.03.153-.111.231-.16a3.013 3.013 0 0 1-.264-.015l-.062-.014a.693.693 0 0 1-.184-.09l-.025-.02a1.178 1.178 0 0 1-.229-.273l-.005-.011a1.547 1.547 0 0 1-.127-.296l-.002-.008c-.026-.094-.045-.16-.045-.257 0-.196.04-.377.125-.536zm30.375 0a3.529 3.529 0 0 1-.551.597l-.004.004a5.014 5.014 0 0 1-.535.4l-.004.003c-.14.086-.263.155-.375.207l-.01.004c-.063.03-.117.05-.172.07.013.064.032.127.032.193a.556.556 0 0 1-.19.4c-.182.16-.36.153-.592.153-.629 0-1.14.088-1.536.252-.41.173-.73.374-.965.596a2.033 2.033 0 0 0-.49.666v.002l-.003.002c-.097.237-.137.418-.137.513 0 .136.049.237.086.346.045-.212.128-.414.31-.58a3.7 3.7 0 0 1 .743-.524h.004c.29-.153.594-.28.908-.376.316-.105.601-.16.864-.16.064 0 .133.003.205.01h.004c.11 0 .216.016.316.05.102.034.199.096.276.182a.537.537 0 0 1 .124.45l-.306.241a3.904 3.904 0 0 0-.82.02l-.007.002c-.244.028-.452.079-.628.15-.166.07-.288.156-.377.256a.348.348 0 0 0-.1.256c0 .03.047.09.107.156a.569.569 0 0 1 .126-.078l.007-.004.004-.002c.076-.041.16-.081.25-.12l.006-.001.004-.002c.108-.05.22-.089.34-.121a1.37 1.37 0 0 1 .434-.073c.275 0 .493.022.685.153.247.161.291.44.291.744 0 .509-.038.922-.123 1.256-.007.03-.018.045-.026.074.045-.032.077-.097.126-.123l.31.028a6 6 0 0 1 .674.599c.207.207.392.4.555.578l-.006-.004c.166.174.306.32.42.442l.001.002.005.004c.012.012.016.013.027.023.038-.041.077-.083.136-.16.167-.22.354-.47.559-.75.1-.137.203-.262.305-.393l-.11.016a6.032 6.032 0 0 1-.83-.747 1.548 1.548 0 0 1-.383-1.052c0-.419.099-.75.332-.983l-.275-.275v-1.11l.15-.11c-.01-.008-.026-.012-.037-.02l-.027-.02a.616.616 0 0 1-.2-.445c0-.586.02-1.075.06-1.471.016-.164.02-.26.033-.396zm-17 .02c-.014.014-.07.042-.14.113l-.005.006a3.45 3.45 0 0 0-.342.45l-.002.001c-.021.034-.03.064-.05.098l.123.017c.056.056.1.083.082.074l-.016-.008a.41.41 0 0 1 .211.229.62.62 0 0 1 .035.226c0 .288.004.65.01 1.082v.006c.013.43.026.894.039 1.395.013.504.023 1.02.03 1.55.006.53.006 1.038 0 1.522 0 .107-.06.198-.114.29.104.013.201.026.326.07.146.05.31.102.49.154.17.048.341.085.516.11a.946.946 0 0 0 .399-.036.457.457 0 0 0 .236-.213c.018-.03.02-.141.035-.195l-.041.037-.375.008a2.373 2.373 0 0 0-.166-.123l-.031-.023a1.098 1.098 0 0 1-.203-.24l-.006-.01a1.296 1.296 0 0 1-.143-.406 3.718 3.718 0 0 1-.055-.602c-.02-.48-.029-.916-.029-1.31 0-.393.003-.773.01-1.145v-.006l.039-1.13.016-.509.103-.181-.096-.027.018-.56c0-.023.021-.04.024-.062l-.145-.002-.627-.556-.006-.004c-.082-.078-.123-.086-.15-.09zm10.076.037a1.048 1.048 0 0 1-.139.353c.004-.008.014-.013.018-.021l.209-.156c.029-.005.08-.012.132-.016zm.955.14c-.17 0-.343.043-.517.098.126.036.263.054.345.158.085.098.174.153.174.367 0 .079-.079.126-.111.198h.25c.058-.037.115-.077.175-.104l-.02.01a.76.76 0 0 0 .137-.094.223.223 0 0 0 .057-.08l.008-.017a.352.352 0 0 0 .025-.15c0-.087-.026-.154-.134-.253-.097-.088-.207-.133-.389-.133zm50.947.068v.285l.047-.004.072-.022.092-.066.015-.026c-.155-.106-.236-.166-.226-.167zm-59.768.079a.53.53 0 0 1-.181.103c.08.003.145.05.22.067zm56.212.175c-.174.009-.31.038-.356.068l-.006.004a.554.554 0 0 0-.197.191l-.004.006c-.052.087-.09.174-.118.264l-.002.006a.829.829 0 0 1-.23.365l-.014.014c-.125.097-.273.082-.415.068.032.055.068.103.098.162.084.169.125.355.125.549.014.563.017 1.131.01 1.707a95.316 95.316 0 0 1-.031 1.582v.004l-.053 1.24v.006c-.02.342-.03.566-.03.644 0 .149-.043.194-.085.278l-.01.02a3.316 3.316 0 0 1-.162.242l-.01.011c-.076.093-.16.177-.252.252l-.011.01a.738.738 0 0 1-.337.111l.046.051.47.533.004.004c.138.151.252.278.348.387.029-.03.049-.044.086-.088.177-.208.464-.495.875-.877l.002-.002a1.37 1.37 0 0 0 .285-.337 1.483 1.483 0 0 0 .139-.473l-.002.037c0-.058 0-.129.056-.217.04-.063.128-.086.205-.111-.161-.196-.273-.406-.302-.633l-.002-.027a28.835 28.835 0 0 1-.022-1.072 46.172 46.172 0 0 1 .043-1.889c.007-.324.017-.683.031-1.076l.008-.055c.027-.115.07-.242.13-.39a1.49 1.49 0 0 1 .337-.497l-.055.334.22-.355c-.106-.134-.217-.269-.31-.4a27.16 27.16 0 0 0-.406-.542.937.937 0 0 0-.096-.109zm9.544.032c-.272 0-.467.045-.581.105l-.012.006a.802.802 0 0 0-.32.245l-.004.006c-.084.108-.145.22-.183.34l-.002.012c-.054.15-.103.291-.143.426l-.005.015a1.8 1.8 0 0 1-.203.403l-.006.008c-.084.111-.23.136-.364.17.065.04.113.095.188.129.178.08.373.12.596.12.223 0 .375-.04.469-.095a.9.9 0 0 0 .277-.266 1.8 1.8 0 0 0 .19-.39l-.005.016c.052-.176.11-.34.178-.49.067-.17.169-.317.295-.438.079-.083.202-.085.309-.124-.067-.028-.135-.074-.202-.095l-.004-.002a1.71 1.71 0 0 0-.466-.102zm-6.062.025c-.13.013-.243.037-.324.111l-.004.004a1.757 1.757 0 0 0-.362.443l-.006.01c-.122.19-.241.39-.357.602-.131.239-.289.453-.47.635l-.044.002c.049.061.105.114.145.185l.006.014c.092.185.115.393.115.654 0 .112-.02.228-.05.355l-.032.124c-.006.027-.002.085-.002-.004l-.291.289c-.306 0-.552-.007-.746-.022l-.01-.002c-.048-.005-.098.007-.146.006.072.111.163.239.206.33l.006.012c.06.14.102.25.13.35l.006.025.004.027c.035.007.05.013.101.022l.014.002c.128.015.311.042.566.083l.241.332c-.024.142-.04.359-.04.637 0 .292-.018.581-.054.867a2.609 2.609 0 0 1-.227.805c-.12.251-.387.39-.66.422.091.162.18.32.277.504l.004.006c.13.259.262.497.397.713l.002.002c.033.054.05.073.076.105l1.41-1.214.252-.022c-.063-.22-.129-.443-.141-.611a18.304 18.304 0 0 1-.033-.524c-.007-.16-.01-.313-.01-.46-.007-.149-.01-.3-.01-.454a12.802 12.802 0 0 1-.012-.539c0-.158.075-.353.238-.451a.73.73 0 0 1 .358-.121c.108-.008.223-.007.345 0 .014 0 .03-.005.043-.006-.11-.174-.219-.347-.285-.533v-.004c-.042-.123-.056-.169-.082-.247h-.148l-.286-.232a2.174 2.174 0 0 0-.035-.156.925.925 0 0 1-.033-.258c0-.56.08-1.025.262-1.398.165-.338.476-.547.824-.676l-.385-.248a29.989 29.989 0 0 1-.744-.496zm-52.24.173c-.119.083-.236.165-.356.256l-.06.035a3.307 3.307 0 0 1-.602.191c-.066.016-.156.018-.224.032l.304.289c-.03.186-.04.347-.027.44.029.208.04.423.033.644l-.29.279c-.26 0-.472.05-.651.139-.068.035-.096.194-.13.334h.354a4.58 4.58 0 0 1 .44 0l.277.288v1.557c0 .268-.005.49-.012.667l.002-.01c0 .169-.004.308-.012.423v.002a1.61 1.61 0 0 1-.035.266.783.783 0 0 1-.044.168l.02-.108c0 .086-.018.101-.032.124l.091.008c.105.082.214.182.333.3l-.006-.008c.11.104.22.212.332.323l.012.011.326.29.003.003.004.002c.023.019.038.024.059.04l.502-.65-.113-.01a3.562 3.562 0 0 1-.358-.325v-.002a.825.825 0 0 1-.19-.319l-.01-.027a1.061 1.061 0 0 1-.013-.299c.002-.02 0-.072 0-.101v-.002a.37.37 0 0 1-.12-.26c0-.05.053-.078.08-.127V104.9l.289-.29h.812c.037-.122.06-.256.127-.356l.006-.01c.011-.016.023-.057.035-.077h-.004l-.435.02a1.295 1.295 0 0 1-.432-.04.498.498 0 0 1-.268-.19.566.566 0 0 1-.09-.291 14.543 14.543 0 0 1-.05-.79v-.01c0-.232.016-.5.05-.804v-.002c.006-.053.012-.063.006-.022zm-25.08.159c-.389.173-.859.392-1.15.512h-.003c-.418.169-.744.296-.988.383-.11.039-.199.066-.277.09l-.01.023.555-.153c.007.02.004.05.011.069l.006-.002-.004.008c.059.168.095.35.11.59l.092.95c.023.245.035.466.035.669a14.437 14.437 0 0 1 0 1.12V106.355c0 .184.004.389.011.619l-.001-.018c.023.245.034.443.025.606-.01.159-.044.31-.107.447l-.004.008a1.744 1.744 0 0 1-.233.344l-.008.01-.107.121c.058-.012.097-.05.16-.057.193-.029.4-.068.625-.119a2.34 2.34 0 0 0 .621-.254l.004-.002c.172-.097.31-.246.418-.474.144-.316.196-.551.192-.647v-.012c0-.183-.009-.334-.022-.447a.915.915 0 0 1 .102-.535c.078-.147.22-.265.384-.388l-.443-.243c0-.63-.006-1.12-.021-1.463v-.008a45.561 45.561 0 0 0-.024-.818 3.029 3.029 0 0 0-.03-.356l-.003-.027a2.614 2.614 0 0 1-.014-.258c0-.055.007-.107.016-.162l.008-.031c.013-.047.052-.07.074-.108zm43.896.368c-.091.182-.179.366-.31.514l-.003.002a1.91 1.91 0 0 1-.256.235l-.004.002-.23.172-.128.091c.004.01.01.018.012.028a.702.702 0 0 1 .035.22c0 .16-.08.25-.156.327a.469.469 0 0 1-.332.152c-.058 0-.121-.004-.191-.012a.57.57 0 0 0-.11 0c-.012.036-.031.09-.053.168l-.001.008c-.028.108-.093.246-.14.37.053-.004.119-.006.159-.01h.004a.68.68 0 0 1 .441.077c.167.1.239.27.274.438.039.178.036.38.016.656-.013.168-.02.317-.02.451v.014c.007.145.012.287.012.426.007.14.01.286.01.437 0 .159-.011.33-.032.518v.002c-.02.163-.033.284-.039.356v.002a.95.95 0 0 1-.064.258l.134.04c.184.124.338.238.464.348l.004.004c.113.09.21.175.29.262l.018.017c.051.047.093.086.133.125.21-.215.416-.43.582-.656.046-.062.098-.145.145-.21-.037-.01-.085-.017-.108-.028a.947.947 0 0 1-.105-.062 1.974 1.974 0 0 1-.221-.176l-.012-.01a1.523 1.523 0 0 1-.218-.282l-.01-.013a.88.88 0 0 1-.104-.416c0-.135-.003-.327-.01-.577v-.008c0-.253.003-.507.01-.761.007-.263.02-.498.04-.705l.003-.01c.014-.11.032-.204.062-.291s.062-.184.19-.264l.01-.006a.571.571 0 0 1 .34-.067h.002c.071.008.145.019.22.034h.004c.044.008.083.012.123.017.006-.022.01-.03.016-.058l.002-.01c.036-.13.126-.258.2-.387h-.813l-.29-.289v-1.23c0-.078.003-.156.004-.233zm17.137 0c-.092.182-.181.366-.313.514v.002c-.074.082-.16.16-.258.235l-.002.002-.232.171-.125.092.011.027a.703.703 0 0 1 .036.22c0 .161-.081.25-.156.327a.468.468 0 0 1-.333.153c-.058 0-.121-.004-.191-.012a.57.57 0 0 0-.11 0c-.012.036-.03.09-.052.168l-.002.008c-.027.108-.093.246-.14.369.053-.003.12-.005.16-.01h.004a.68.68 0 0 1 .441.078c.167.1.239.27.274.437.039.178.036.381.016.657-.013.167-.02.317-.02.45v.015c.007.145.012.287.012.426l-.002-.014c.008.145.011.295.011.45 0 .16-.01.332-.031.519l-.002.002c-.02.164-.03.284-.037.355l-.002.002a.984.984 0 0 1-.062.258l.134.041c.185.123.338.238.463.348l.004.004c.114.09.21.175.291.262l.018.017.133.125c.21-.215.416-.431.582-.656.045-.062.097-.146.144-.211-.036-.01-.082-.016-.105-.027a.972.972 0 0 1-.108-.063 1.966 1.966 0 0 1-.22-.176l-.012-.01a1.532 1.532 0 0 1-.22-.281l-.009-.014a.88.88 0 0 1-.103-.416c0-.134-.003-.327-.01-.576v-.008c0-.254.003-.507.01-.762.007-.263.02-.497.041-.705l.002-.01c.015-.11.032-.203.062-.29.03-.088.062-.185.19-.265l.01-.006a.576.576 0 0 1 .342-.066h.002c.071.008.143.018.218.033h.004c.044.008.084.013.123.018.006-.022.01-.03.016-.059l.002-.01c.037-.13.126-.258.2-.386h-.813l-.289-.29v-1.23c0-.077.003-.155.004-.233zm-21.055 0c-.09.182-.179.366-.31.514l-.002.002c-.073.082-.158.16-.256.235l-.002.002-.233.171-.125.092.012.027a.703.703 0 0 1 .035.22c0 .16-.082.25-.158.327a.467.467 0 0 1-.33.153 1.75 1.75 0 0 1-.193-.012.57.57 0 0 0-.11 0c-.012.036-.029.09-.05.168l-.003.008c-.027.108-.093.246-.14.369.053-.003.118-.005.158-.01h.004a.686.686 0 0 1 .443.078c.166.1.236.268.272.434.04.177.038.382.017.66a6.41 6.41 0 0 0-.019.45v.015c.007.144.01.286.01.426.006.14.01.286.01.437 0 .158-.011.33-.032.518v.002c-.02.163-.033.284-.039.355v.002a.95.95 0 0 1-.064.258l.135.041c.184.123.337.24.463.35l.003.002c.114.089.211.175.293.261l.018.018c.05.046.09.086.13.125.21-.215.416-.431.582-.656.046-.062.099-.146.145-.211-.036-.01-.083-.016-.105-.028a.975.975 0 0 1-.106-.062 2.001 2.001 0 0 1-.222-.176l-.01-.01a1.528 1.528 0 0 1-.22-.281l-.009-.014a.882.882 0 0 1-.105-.416c0-.134-.003-.326-.01-.576v-.008c0-.254.003-.508.01-.762.007-.263.022-.498.043-.705v-.01c.014-.11.032-.204.062-.29.03-.088.062-.185.19-.265l.01-.006a.57.57 0 0 1 .341-.066h.002c.071.008.145.018.22.033h.005c.043.008.082.013.121.018.006-.023.01-.03.016-.059l.004-.01c.036-.13.125-.258.199-.387h-.813l-.29-.289v-1.23c0-.078.002-.155.003-.232zm-43.02.084c-.318.308-.726.643-.956.924l-.002.002c-.465.577-.814 1.082-1.045 1.502l-.002.002c-.237.422-.378.756-.428.974-.03.132-.052.236-.066.309-.015.073-.018.137-.018.096 0 .679.107 1.252.309 1.726v.002a4.09 4.09 0 0 0 1.85 2.033 6.654 6.654 0 0 0 2.16.734c.302.037.523.056.632.056.666 0 1.273-.1 1.826-.293a4.83 4.83 0 0 0 1.456-.809c.238-.197.379-.447.554-.678a3.82 3.82 0 0 1-1.937 1.115l-.223-.175-.227.25a1.267 1.267 0 0 0-.168.027l-.025.006a1.673 1.673 0 0 1-.25.014c-.31 0-.615-.046-.91-.139l-.01-.004a6.174 6.174 0 0 1-.779-.336l-.004-.002a6.794 6.794 0 0 1-.67-.406l-.004-.002-.492-.355-.012-.352-.193.014c-.181-.162-.324-.383-.449-.658l-.004-.006a7.361 7.361 0 0 1-.285-.799l-.002-.008c-.07-.264-.124-.498-.164-.705l-.045-.232-.012-.069a.755.755 0 0 1-.006-.049v-.01c-.03-.35-.04-.67-.023-.959l.018-.314c.003-.072.003-.145.003-.103l.002-.02a3.22 3.22 0 0 1 .19-.941c.09-.24.187-.521.293-.846l.193-.088-.018-.026c.01.019.014.008.024.022l.025-.012-.136-.173v-.125zm81.704.098.01.08c.015-.018.013-.034.035-.051l-.022-.014a.48.48 0 0 0-.023-.015zm.75.4c.03.054.063.105.091.164.027.057.048.104.064.15.017.046.035.073.035.172V105c0 .354-.016.723-.052 1.11-.035.372-.055.737-.062 1.093-.007.348.017.68.07.996v.002c.05.29.151.535.306.75.149.206.36.374.659.504.196.086.536.107.857.137-.038-.04-.12-.022-.148-.07-.13-.212-.212-.43-.212-.653v-1.22l.17-.264c.082-.037.158-.067.231-.092a.799.799 0 0 1 .28-.048c.124 0 .247.023.374.066l.006.002a1.2 1.2 0 0 1 .356.205 1.2 1.2 0 0 1 .26.283l.007-.12a.962.962 0 0 0-.045-.226l-.002-.002a.868.868 0 0 0-.187-.285 1.335 1.335 0 0 0-.412-.262c-.16-.07-.39-.113-.693-.113l-.288-.242a1.008 1.008 0 0 1-.011-.293c0-.059.003-.12.01-.192l.266-.262c.082-.006.151-.016.206-.027l-.025.008c.102-.03.21-.044.324-.044.43 0 .782.053 1.067.185.252.111.462.253.611.44l.006.005c.063.084.087.18.13.27.004-.045.01-.077.01-.127 0-.284-.063-.475-.169-.61l-.002-.004a1.246 1.246 0 0 0-.49-.384l-.006-.004a2.253 2.253 0 0 0-.736-.203h-.006a6.615 6.615 0 0 0-.896-.06l-.292-.292c0-.249-.032-.45-.088-.605a1.331 1.331 0 0 0-.24-.424 2.069 2.069 0 0 0-.402-.357 13.638 13.638 0 0 0-.567-.35l-.002-.002a2.52 2.52 0 0 0-.363-.188zm-82.283.004c.004.001.017.017.019.017l-.01-.013-.01-.004zm41.857.29c.005.009.007.018.012.026v-.006zm3.916.001c.005.008.007.019.012.028v-.008zm17.137 0c.005.008.006.019.011.028v-.01zm-47.912.252c-.138.157-.27.323-.452.438h-.001c-.019.01-.037.018-.055.029l.091.021c.042.021.093.05.167.094.095.051.19.107.283.172l.002.002c.097.063.183.133.26.207.095.078.212.153.212.369v2.648c0 .134-.07.248-.144.322a2.25 2.25 0 0 1-.12.13l-.013.013.226.078c.04.133.062.255.05.385v.002a2.363 2.363 0 0 1-.034.227c-.01.047-.015.1-.021.156 0 .021.008.091.041.191a.952.952 0 0 0 .185.311l.004.006.336.416.004.006c.12.155.228.315.32.478l.002.002c.113.195.173.412.174.631.043-.063.103-.114.139-.183l.002-.006c.105-.194.154-.381.154-.576 0-.161-.02-.327-.06-.499l-.002-.008a2.972 2.972 0 0 0-.108-.394l-.045-.121c-.01-.028-.026-.056-.011-.027l-.032-.131v-4.485c-.06-.004-.091-.016-.115-.025a.942.942 0 0 1-.082-.037 3.862 3.862 0 0 1-.205-.113l-.012-.008c-.151-.1-.319-.208-.504-.327a19.746 19.746 0 0 0-.517-.322l-.012-.006c-.072-.048-.061-.041-.107-.066zm8.539.126c-.062.053-.12.102-.217.166a6.101 6.101 0 0 1-.543.307c.125.079.248.155.367.223.157.09.342.219.567.389l.115.23v3.281l-.489.211a8.451 8.451 0 0 0-.496-.44l-.289-.228-.023-.021a.833.833 0 0 1-.174-.225.727.727 0 0 1-.07-.295v-.023c0-.078-.003-.202-.01-.366v-.01c0-.143-.02-.373-.059-.677l-.002-.049.07-1.795.038-.02c-.207.085-.382.165-.666.262l-.01.004c-.151.057-.3.098-.445.121l-.014.002-.008.002c.026.055.057.101.057.186v3.108c.273.164.528.314.718.423.224.118.42.2.577.245.153.037.288.047.412.033h.002a2.2 2.2 0 0 0 .475-.147c.201-.088.44-.204.71-.346.223-.121.518-.272.82-.425-.023-.076-.062-.153-.074-.227l-.001-.016a3.53 3.53 0 0 1-.022-.367v-.017a1.79 1.79 0 0 0 0-.248v-.022c0-.026-.005-.049-.031-.088l-.049-.16v-.578c.007-.168.01-.327.01-.482v-.012c.006-.166.015-.331.021-.496.007-.171.013-.361.02-.572v-.004c.003-.081.02-.144.029-.215l-.19.004a54.036 54.036 0 0 0-.859-.475l-.008-.004a8.854 8.854 0 0 0-.26-.146zm-15.659.133c-.063.072-.115.135-.197.22-.137.145-.272.284-.402.42l-.004.007c-.001 0-.003 0-.004.002l.076.039c.072.064.131.127.182.196a.655.655 0 0 1 .133.257c.02.081.029.163.029.248l-.002-.027c.006.062.016.142.03.238l.001.012c.027.303.041.565.041.789 0 .209.004.465.01.768l-.004-.04c.039.245.03.476-.043.684v.002c-.053.17-.121.324-.213.457-.043.063-.098.104-.146.157.16.126.343.26.44.367.128.129.22.231.289.336l-.01-.016.012.016c.05-.032.128-.076.286-.225.16-.15.378-.372.6-.6-.05-.078-.1-.152-.148-.26l-.004-.01a4.692 4.692 0 0 1-.191-.6l-.003-.01a4.407 4.407 0 0 1-.086-.946c0-.557.079-1.01.272-1.365.003-.006.007-.01.01-.014l-.137-.037a1.497 1.497 0 0 1-.111-.37l-.002-.017a.765.765 0 0 0-.08-.26.785.785 0 0 0-.227-.248l-.004-.004c-.061-.05-.232-.109-.392-.166zm2.41.012a5.817 5.817 0 0 0-.505.545l-.004.002c-.009.01-.02.016-.03.027.041.02.09.019.121.047.08.07.125.155.159.242l.002.002c.068.156.108.337.136.555.035.218.056.466.063.746v.008c.013.28.02.584.02.91 0 .43-.043.787-.145 1.084-.027.083-.071.134-.102.209l.112-.012c.276.174.508.379.69.613.076.1.126.118.189.168l.566-.707c-.093.003-.188.03-.266-.02h-.002c-.19-.118-.215-.28-.248-.449l-.003-.03a8.59 8.59 0 0 1-.032-.688c0-.202.003-.401.01-.596v-.01l.039-.584c.013-.197.028-.413.041-.65.007-.122.01-.226.01-.312v-.02c.008-.12.028-.235.06-.348l.006-.017c.022-.06.064-.116.096-.174l-.05.002a2.47 2.47 0 0 0-.184-.114l-.014-.008a8.906 8.906 0 0 0-.299-.183l-.006-.004a3.75 3.75 0 0 0-.312-.175l-.018-.01c-.037-.022-.065-.032-.1-.05zm49.688.088c-.306.217-.607.423-.891.539-.326.135-.617.24-.877.31h-.006c-.237.06-.427.11-.569.149l-.014.002-.047.011c-.003.056-.012.181-.035.486v.004c-.017.314-.025.868-.027 1.546-.004-.004.025-.008.117-.038.127-.044.257-.091.39-.142l.005-.002c.146-.053.277-.098.39-.138l-.01.002c.06-.024.107-.04.14-.053l.046-.018.023-.006a.113.113 0 0 1 .022-.006l.062-.008c.04 0 .102.004.174.052.049.033.067.095.09.15.03-.025.058-.054.088-.08-.017.004-.03.018-.047.02l-.326-.289v-1.596l.379-.275c.348.114.651.223.91.325l-.006-.004c.126.046.22.083.287.109l.082.031.031.014c.006.003.011.004.021.01l.022.013c.01.006.047.04.047.04l.031.075c.106-.149.184-.28.27-.415l-.1-.026c-.196-.109-.346-.212-.457-.355l-.013-.02a1.543 1.543 0 0 1-.16-.305l-.001-.008c-.014-.041-.028-.07-.041-.105zm-4.164.043c-.09.176-.182.37-.265.498a1.437 1.437 0 0 1-.313.337l.239.016a2.536 2.536 0 0 1 .57.592c.032-.033.02-.017.072-.096v-.002c.103-.152.242-.364.389-.593-.007-.014-.003-.013-.051-.082a3.163 3.163 0 0 0-.613-.65l-.008-.007c-.01-.008-.01-.006-.02-.013zm12.752 0c-.09.176-.18.37-.263.498a1.438 1.438 0 0 1-.315.337l.238.016c.156.12.281.235.38.35.077.09.14.168.192.242.033-.033.018-.017.071-.096l.002-.002c.104-.152.241-.366.388-.596-.008-.016-.004-.012-.05-.08a3.167 3.167 0 0 0-.615-.65l-.008-.006c-.01-.008-.01-.006-.02-.013zm-14.647.015-.066.07c-.128.141-.27.307-.426.496l-.004.004c-.075.087-.132.164-.2.246l.063-.008c.203.18.348.39.38.635.031.178.038.37.024.582v.002c-.012.28-.019.519-.019.715.008.222-.005.48-.031.78v.001a1.887 1.887 0 0 1-.143.596v.002c-.007.016-.016.026-.023.041l.139.01c.263.21.47.389.628.547.144.137.258.25.348.348l.006.008.149.146.58-.7-.104-.001c-.131-.1-.254-.22-.365-.354l-.01-.014c-.114-.155-.196-.318-.196-.508v-2.22l.008-.069s.007-.028.012-.037c.007-.018.01-.029.016-.037a.257.257 0 0 1 .021-.035 3.743 3.743 0 0 1 .113-.14l.004-.004.004-.004c.057-.071.131-.12.2-.174l-.215-.014a4.656 4.656 0 0 1-.549-.479l-.012-.01a4.595 4.595 0 0 1-.275-.35c-.027-.04-.037-.048-.057-.07zm12.754.002c-.023.024-.037.036-.066.068-.129.142-.272.307-.428.496l-.004.004c-.075.087-.132.164-.2.246l.063-.008c.203.18.348.39.381.635.03.179.038.372.023.584l.002-.006c-.012.284-.019.523-.02.72.009.224-.003.482-.03.78v.002a1.894 1.894 0 0 1-.145.598c-.007.015-.016.026-.023.04l.138.01c.261.209.468.386.625.544l.004.004c.143.136.258.25.348.347l.008.008.15.147c.22-.264.404-.49.577-.7l-.104-.002c-.13-.1-.251-.22-.363-.353l-.011-.014c-.114-.155-.196-.318-.196-.508v-2.22l.008-.07a.433.433 0 0 1 .03-.075.735.735 0 0 1 .052-.076c.021-.026.05-.058.082-.098.058-.073.136-.124.208-.182l-.215-.013a4.702 4.702 0 0 1-.551-.478l-.01-.012a4.631 4.631 0 0 1-.276-.35c-.026-.038-.037-.046-.056-.068zm5.989.088c-.062.053-.12.102-.217.166h-.002a6.037 6.037 0 0 1-.54.307c.124.078.248.155.366.223.157.09.343.217.567.386l.115.23v3.284l-.488.21a8.384 8.384 0 0 0-.498-.439l-.29-.228-.023-.022a.82.82 0 0 1-.173-.224.725.725 0 0 1-.069-.295v-.024c0-.077-.006-.2-.012-.365v-.011c0-.143-.017-.374-.056-.678l-.002-.047.07-1.795.051-.026c-.21.087-.39.168-.681.268l-.008.002c-.152.057-.3.098-.445.12l-.014.003-.01.002c.026.054.058.1.058.187v3.106c.274.164.529.317.72.426.221.117.412.196.57.242.154.039.291.048.417.033h.002c.133-.022.291-.068.475-.145.185-.081.409-.193.654-.32l.008-.014c.005-.074 0-.147.056-.232a.385.385 0 0 1 .2-.152.393.393 0 0 1 .23.002l.006.002c.07.023.082.048.121.074l.256-.13c-.024-.077-.065-.155-.077-.23l-.002-.013a3.418 3.418 0 0 1-.021-.367l.002-.02a1.675 1.675 0 0 0 0-.246l-.002-.023c0-.027-.003-.047-.03-.086l-.048-.162v-.576c.007-.169.01-.33.01-.485v-.011l.02-.497c.007-.17.012-.36.019-.572v-.004c.004-.08.02-.142.03-.213l-.19.002a53.15 53.15 0 0 0-.858-.472l-.008-.004a9.123 9.123 0 0 0-.26-.146zm-58.469.111c-.12.063-.242.138-.364.188l-.003.002a5.83 5.83 0 0 1-.615.209l-.01.002-.074.019v3.1c0 .197-.05.356-.104.517h.164c.171.138.307.258.416.365l.014.014c.096.084.175.155.238.217l.01.01c.047.041.081.068.101.082.022-.003.041-.003.07-.026.077-.06.156-.135.239-.23l.008-.008c.097-.104.197-.213.3-.33l.002-.002c.025-.028.059-.047.085-.074-.181-.065-.337-.121-.45-.275l-.015-.026a.8.8 0 0 1-.11-.402v-.022c.007-.097.018-.201.031-.312l.004-.018c.007-.033.004-.09-.039-.185l-.025-.117v-2.57zm26.951.002-.092.055s.039-.016.053-.025a.188.188 0 0 0 .033-.024l.006-.006zm3.918 0-.092.055s.037-.016.051-.025a.213.213 0 0 0 .036-.024c.003-.003.002-.004.005-.006zm17.13.006-.087.049s.039-.015.053-.023c.014-.008.024-.019.033-.026zm-11.185.127a1.65 1.65 0 0 0-.34.016h-.002a2.693 2.693 0 0 0-.668.178h-.004a6.052 6.052 0 0 1-.57.279l-.012.006a2.382 2.382 0 0 1-.342.098v2.166l.002.017.008.112v.002c.008.109.012.235.012.385l-.002-.014c.008.149.007.3 0 .455 0 .14-.002.245-.025.346l-.006.017c-.006.02-.02.03-.028.047l.123-.011c.29.217.517.392.686.527l.006.004c.167.128.297.233.394.316l.01.008c.046.036.072.053.104.078l.545-.584a.789.789 0 0 1-.373-.156 1.706 1.706 0 0 1-.324-.381 2.395 2.395 0 0 1-.225-.463l-.004-.012a1.596 1.596 0 0 1-.082-.484c0-.103.034-.15.057-.185a.475.475 0 0 1 .066-.079c.041-.04.089-.078.143-.119l-.026-.002c-.015-.02-.023-.023-.002-.008l-.044-.037a.47.47 0 0 1-.095-.134l-.02-.055a.659.659 0 0 1-.02-.184v-.228c0-.114.011-.272.031-.5v-.008a8.48 8.48 0 0 0 .037-.9l.305-.29.168.065c.148.12.28.287.427.511.14.214.307.475.499.78l-.012.062c.043-.034.096-.07.137-.103.145-.12.261-.227.35-.32l.007-.009c.085-.084.074-.14.074-.052 0-.378-.079-.625-.187-.764l-.002-.004a.877.877 0 0 0-.467-.334h-.002a1.334 1.334 0 0 0-.304-.054h-.002zm-45.916.458c-.114 0-.268.02-.451.062l.004-.002a1.95 1.95 0 0 1-.566.064l-.09-.096a.703.703 0 0 1-.158.33c-.07.082-.197.161-.303.239l.352.184.316-.221c.265.097.487.24.637.443.122.166.217.34.28.521.051.127.095.248.136.366l1.18-1.432-.286-.033a2.399 2.399 0 0 0-.49-.316 1.286 1.286 0 0 0-.56-.11zm32.512.103v.002l.012.004zm22.399 1.222c-.066.067-.143.129-.217.191l.233.22c.032.271.05.456.058.583l.002.018a2.016 2.016 0 0 1 0 .555c-.006.072-.01.238-.01.474l-.406.266a2.524 2.524 0 0 1-.381-.194l-.018-.011a.27.27 0 0 0-.097-.05 1.415 1.415 0 0 0-.254-.028h-.002a13.75 13.75 0 0 0-.658-.01l-.063-.254-.278.277-.006.006-.152.146-.023.024c.003-.004.008-.01.017-.026l.018-.037.014-.039.008-.07-.069.185c-.043.051-.023.065-.06.114.02-.001.038-.024.058-.024.359 0 .692.147.903.42.12.15.157.328.213.498.21-.197.432-.38.69-.515.287-.158.564-.287.831-.385h.002c.266-.096.498-.166.701-.21h.002l.107-.021v-2.093h-.015l-.387.117a2.38 2.38 0 0 1-.678.091zm-11.206.99.233.139.01-.016s-.215-.108-.242-.123zm.013 0 .249.072.008-.033.004-.023v-.016zm-42.075.713c-.096.311-.134.642-.323.915.02-.037.062-.061.08-.098l.002-.004c.067-.125.112-.27.17-.442l.007-.002-.004-.002c.042-.123.04-.245.068-.367zm50.496.8-.01.015c.002-.002.005 0 .006-.002.003-.004 0-.01.004-.012zm16.425.136-.019.01.008.045c.029-.012.045-.029.065-.047v-.008zm12.697.55c-.166 0-.299.028-.403.072l-.004.002a1.517 1.517 0 0 0-.336.184l-.01.008c-.107.074-.195.14-.264.196-.103.085-.218.16-.383.16-.112 0-.168-.103-.271-.13l.138.36a4.128 4.128 0 0 1-.52.381l.477-.101c.23-.05.448-.093.657-.135.22-.051.383-.082.53-.082a2.532 2.532 0 0 1 1.231.332c.196.106.366.24.503.402l.006.008c.08.103.09.236.126.36.044-.17.124-.31.124-.517 0-.54-.145-.881-.422-1.114-.301-.254-.68-.385-1.18-.385zm-72.172.627h-.001l-.014.024.006-.014a2.15 2.15 0 0 1-.23.375c-.099.149-.228.28-.38.395-.058.046-.149.069-.216.107.106.04.244.036.33.106.155.126.3.259.434.4l.004.006c.11.121.237.232.384.332.01.008.057.007.07.014-.086-.113-.175-.23-.175-.379 0-.165.066-.346.196-.463l.023-.02c.089-.064.185-.12.287-.167l.017-.008.018-.008a12.143 12.143 0 0 0-.357-.34l-.004-.004a10.49 10.49 0 0 0-.392-.356zm20.369.092c-.543 0-.958.065-1.233.174-.305.128-.522.264-.65.387-.15.142-.232.265-.262.342l-.043.13c.004.315.097.565.307.794.14.152.361.262.554.386-.178-.194-.347-.405-.347-.66 0-.254.196-.47.42-.572l.005-.002c.202-.088.4-.139.596-.139.185 0 .389.05.695.137l.006.002c.305.09.639.19 1.004.296h.004c.367.113.733.211 1.1.293h.006c.359.088.652.129.868.129.339 0 .65-.035.938-.106h.002c.295-.07.548-.172.762-.306l.004-.004c.193-.114.331-.26.441-.43a1.4 1.4 0 0 1-.842.258c-.248 0-.534-.066-.892-.185h-.002l-1.11-.38h-.001c-.39-.134-.796-.262-1.217-.382a4.326 4.326 0 0 0-1.113-.162zm42.673 2.813.004.01v-.006c0-.002-.003-.002-.004-.004zm.397.59.005.004v-.002l-.005-.002z"/></g></svg>
